# xmcd CD database file
#
# Track frame offsets:
#	150
#	15810
#	35648
#	53679
#	73777
#	88326
#	103778
#	118088
#	138814
#	151949
#
# Disc length: 2201 seconds
#
# Revision: 1
# Processed by: cddbd v1.5.1PL0 Copyright (c) Steve Scherf et al.
# Submitted via: CDex 1.51
#
DISCID=7d08970a
DTITLE=Eric Wood - Illustrated Night
DYEAR=1999
DGENRE=Blues
TTITLE0=Let my people go
TTITLE1=Fools Gold
TTITLE2=Second chance
TTITLE3=The call
TTITLE4=Blue impression
TTITLE5=Opus to ecstasy
TTITLE6=Bury me standing
TTITLE7=Fade into love
TTITLE8=Crazy Jane
TTITLE9=Steampipes
EXTD=YEAR: 1999
EXTT0=
EXTT1=
EXTT2=
EXTT3=
EXTT4=
EXTT5=
EXTT6=
EXTT7=
EXTT8=
EXTT9=
PLAYORDER=
